<?xml version="1.0" standalone="no"?>
<!DOCTYPE svg PUBLIC "-//W3C//DTD SVG 20010904//EN"
 "http://www.w3.org/TR/2001/REC-SVG-20010904/DTD/svg10.dtd">
<svg version="1.0" xmlns="http://www.w3.org/2000/svg"
 width="852.000000pt" height="90.000000pt" viewBox="0 0 852.000000 90.000000"
 preserveAspectRatio="xMidYMid meet">

<g transform="translate(0.000000,90.000000) scale(0.100000,-0.100000)"
fill="#000000" stroke="none">
<path d="M394 748 c-54 -17 -125 -80 -158 -138 -28 -49 -31 -64 -31 -135 0
-63 5 -89 23 -122 56 -106 144 -164 251 -164 33 0 78 5 98 12 51 16 123 66
123 85 0 11 -13 4 -42 -20 -42 -36 -118 -66 -167 -66 -35 1 -101 32 -128 61
-33 36 -51 86 -58 164 -13 138 24 250 98 295 65 40 200 18 265 -42 12 -12 22
-17 22 -11 0 16 -43 51 -90 72 -49 23 -151 27 -206 9z"/>
<path d="M910 476 l0 -286 181 0 c117 0 178 3 174 10 -4 6 -58 10 -130 10
l-125 0 -2 273 -3 272 -47 3 -48 3 0 -285z"/>
<path d="M1635 736 c-109 -51 -169 -144 -169 -261 0 -166 119 -287 282 -287
86 0 143 23 202 82 112 112 118 274 13 390 -89 99 -217 129 -328 76z m207 -21
c22 -15 47 -45 63 -79 23 -47 27 -69 28 -148 2 -117 -15 -179 -62 -228 -73
-76 -170 -76 -243 1 -47 49 -59 94 -59 221 0 89 3 108 26 155 36 73 82 103
155 103 42 0 64 -6 92 -25z"/>
<path d="M2325 741 c-61 -27 -95 -73 -95 -126 0 -84 24 -108 178 -180 88 -41
142 -90 142 -128 0 -12 -9 -36 -20 -54 -45 -74 -186 -66 -272 15 -33 30 -38
16 -6 -17 58 -64 201 -83 280 -39 54 30 88 79 88 130 0 80 -43 121 -201 195
-128 60 -159 114 -100 174 26 26 36 29 90 29 75 0 134 -23 166 -64 16 -20 25
-25 25 -15 0 21 -48 65 -92 83 -50 21 -134 20 -183 -3z"/>
<path d="M2840 475 l0 -285 175 0 c110 0 175 4 175 10 0 6 -50 10 -130 10
l-131 0 3 128 3 127 100 6 100 5 -102 2 -103 2 0 130 0 130 130 0 c80 0 130 4
130 10 0 6 -65 10 -175 10 l-175 0 0 -285z"/>
<path d="M3380 750 c0 -6 35 -10 85 -10 l85 0 0 -275 0 -275 50 0 50 0 0 275
0 275 85 0 c50 0 85 4 85 10 0 6 -80 10 -220 10 -140 0 -220 -4 -220 -10z"/>
<path d="M4380 476 l0 -286 45 0 44 0 3 128 3 127 66 0 c53 0 72 -4 89 -20 30
-27 55 -85 71 -167 l13 -68 48 0 c56 0 56 -2 28 115 -16 71 -23 84 -60 118
-26 22 -36 37 -27 37 8 0 29 12 47 26 87 73 79 186 -16 245 -36 22 -51 24
-196 28 l-158 3 0 -286z m291 225 c35 -35 39 -44 39 -90 0 -106 -39 -141 -157
-141 l-83 0 0 135 0 135 81 0 c81 0 81 0 120 -39z"/>
<path d="M5050 475 l0 -285 45 0 45 0 0 285 0 285 -45 0 -45 0 0 -285z"/>
<path d="M5355 750 c-4 -6 25 -10 79 -10 l86 0 0 -275 0 -275 50 0 50 0 0 275
0 275 85 0 c50 0 85 4 85 10 0 6 -78 10 -214 10 -133 0 -217 -4 -221 -10z"/>
<path d="M6000 568 c0 -108 5 -211 11 -233 26 -94 99 -146 204 -146 76 0 124
20 164 68 45 55 51 92 49 309 l-1 199 -7 -205 c-5 -186 -8 -209 -29 -252 -26
-55 -58 -83 -111 -99 -50 -15 -104 -4 -141 29 -39 35 -49 99 -49 340 l0 182
-45 0 -45 0 0 -192z"/>
<path d="M6767 481 c-70 -153 -127 -281 -127 -284 0 -25 20 5 50 73 l35 81
124 -3 124 -3 33 -75 33 -75 50 -3 c28 -2 51 1 51 6 0 8 -220 516 -236 545 -7
12 -42 -54 -137 -262z m193 -108 c0 -1 -49 -3 -110 -3 -60 0 -110 2 -110 4 0
3 16 40 36 83 20 43 45 98 56 123 l19 44 55 -123 c30 -69 54 -126 54 -128z"/>
<path d="M7350 476 l0 -286 181 0 c117 0 178 3 174 10 -4 6 -58 10 -130 10
l-125 0 -2 273 -3 272 -47 3 -48 3 0 -285z"/>
<path d="M8000 738 c-61 -32 -85 -68 -85 -128 0 -72 23 -96 156 -162 63 -32
124 -69 137 -83 26 -31 29 -81 6 -114 -18 -26 -71 -51 -107 -51 -47 0 -126 31
-156 61 -19 18 -31 25 -31 17 0 -21 39 -54 84 -73 44 -19 148 -21 191 -5 45
17 94 69 106 113 23 85 -22 137 -184 218 -124 62 -137 73 -137 115 0 46 9 63
42 80 68 35 189 9 236 -51 13 -16 23 -22 27 -15 10 17 -57 74 -102 88 -63 19
-133 15 -183 -10z"/>
</g>
</svg>
