<svg xmlns="http://www.w3.org/2000/svg" viewBox="0 0 2224.22 158.17"><path d="M1175.06,87.17v67.68h-27V2.29c26.54,0,53-1.63,79.1.51,22,1.8,37.18,18,39,35.8,2.14,20.65-7.84,35.13-32.8,46,30.26,15.13,27.23,44.37,33.6,70.78h-27.12c-2.11-9.24-4.44-18.72-6.42-28.26C1226,91.09,1214.75,83,1175.06,87.17Zm.32-6.65c11,0,20.49.19,30,0,18.18-.44,31.63-12.93,33.51-30.81,2.18-20.8-8-38.92-25.78-41.87-12.2-2-25-.38-37.71-.38Z" transform="translate(-1.54 0.21)"/><path d="M506.05,79.21c-.1,42.61-36.45,78.7-79.28,78.73-43.69,0-79.57-36.2-79.23-80C347.87,34.9,383.64.12,427.33.38,470.8.64,506.14,36,506.05,79.21Zm-30-23c-3.1-28.41-22.68-49.25-46.63-50C403.21,5.3,382,22.73,378.58,52.47c-2.31,20.3-1.15,41.52,2.12,61.75,1.35,8.3,16.81,36.14,42.76,38,27.75,1.95,45.37-28.35,46.68-30.69C480.28,103.46,476.85,63.82,476,56.21Z" transform="translate(-1.54 0.21)"/><path d="M752.45,76.8h51.82l.2,3.78h-52v70.66h69.7c0,1.17-.08,2.34-.13,3.51H725.13V2.25H822l.15,3.06H752.45Z" transform="translate(-1.54 0.21)"/><path d="M1907,155c-28.71,2.55-28.71,2.55-39.09-20.91-1.83-4.13-4.12-8.14-5.39-12.43-2.31-7.8-7.12-10.25-15.19-9.91-14.6.61-29.28.73-43.86,0-8.9-.47-13.1,3.19-16.25,10.82-4.77,11.58-10.46,22.79-15.76,34.16l-4.6-2.29L1838.46-.21C1861.78,52.58,1884.07,103.07,1907,155ZM1826.24,39l-31,67h60.16Z" transform="translate(-1.54 0.21)"/><path d="M2217.75,30.26c-14.15-18.59-32.69-26.39-55.46-24.08-12.74,1.3-23.37,5.71-26.56,19.28-3.12,13.31,4.51,21.5,15.53,27,13.83,7,28.08,13.06,41.81,20.18,25.79,13.38,35.64,28.16,31.95,46.68-4.37,21.93-22.76,36.68-50.2,38.16-19.14,1-37.31-3.26-51.43-17.58-2.5-2.54-4.06-6-4.95-10.2,16.79,17.53,36.68,24.73,60.39,21.65,12.5-1.63,21.69-7.75,24.82-20.07,3.34-13.17-2.89-22.93-14-29.71-6.95-4.26-14.34-7.85-21.67-11.48-8.56-4.23-17.27-8.17-25.91-12.25-16.73-7.91-27.38-20.1-25.24-39.38C2119.05,19.06,2132,8,2150,3.05c20.27-5.54,40-3.57,57.32,9.24,5.22,3.86,8.89,9.78,13.28,14.76Z" transform="translate(-1.54 0.21)"/><path d="M659.49,32c-14.9-20.32-33.36-27.8-56-25.87-15.56,1.33-24.85,7.93-27.32,20.06C573.36,40,581.9,47.28,592.55,52.74c13.76,7,28,13.12,41.71,20.31,26.89,14.12,35.59,28.65,30.69,49.77-4.44,19.13-24.59,33.93-50.28,34.72-20.58.63-40-3.94-53.79-21.24-1.24-1.57-1.68-3.76-1.61-6.78C572,143.77,588,150.6,606.44,152.22c18.26,1.61,33.12-5.9,37.11-18.85s.24-23.75-13.8-32c-13.26-7.82-27.65-13.74-41.49-20.6-25.81-12.79-33.64-24.5-29.85-45.52a37.5,37.5,0,0,1,5.36-13.67C583.2-8.08,642-6.1,659.41,24.65,660,25.64,659.49,27.22,659.49,32Z" transform="translate(-1.54 0.21)"/><path d="M1592.3,1.85h26.17c.24,5.1.65,9.9.68,14.71.16,32.58-.11,65.17.47,97.74.37,20.27,8.07,31.26,23.2,36,17.65,5.49,38.77,1,48.27-13.44,6.93-10.54,12.79-23.52,13.73-35.82,2.13-27.91.9-56.06,1.11-84.11,0-4.67.44-9.33,3.73-14.28.44,1.78,1.28,3.57,1.28,5.35,0,30.31.6,60.65-.39,90.94-1.2,36.84-24.42,59.22-59.41,59s-57.8-23-58.69-59.74C1591.69,66.55,1592.3,34.92,1592.3,1.85Z" transform="translate(-1.54 0.21)"/><path d="M921.16,5.71H874.91l.09-3H993.56c.09.82.18,1.63.26,2.45H948.29v150H921.16Z" transform="translate(-1.54 0.21)"/><path d="M1534.34,6.14H1489.4V154.83h-27.78V6.28h-45.45l0-3.31h118C1534.21,4,1534.28,5.08,1534.34,6.14Z" transform="translate(-1.54 0.21)"/><path d="M196.56,1.84h26V151.11h71.2l-.09,3.52h-97.1Z" transform="translate(-1.54 0.21)"/><path d="M2060.24,155.19H1963V2.28h26.08V151.17h71.15C2060.23,152.51,2060.24,153.85,2060.24,155.19Z" transform="translate(-1.54 0.21)"/><path d="M136.5,28.71c-5.18-3.83-8.92-6.71-12.78-9.42C105.09,6.25,84.4.66,63,9.59,41.08,18.77,32.31,38.16,31.39,61a342.05,342.05,0,0,0,.17,37.89c3.3,46.14,43.9,67.38,84.52,44.26,7.72-4.4,14.49-10.44,22-15.92-3.36,16.59-35.81,32.38-62.12,30.63-37.68-2.5-71-33.9-74.08-69.8C-1.61,47.74,24.18,10.72,61.78,2,91.33-4.88,128.08,7.45,136.5,28.71Z" transform="translate(-1.54 0.21)"/><path d="M1331,1.86h25.37v153.3H1331Z" transform="translate(-1.54 0.21)"/></svg>